<svg xmlns="http://www.w3.org/2000/svg" viewBox="0 0 35.47 35.47"><defs><style>.cls-1{fill:#1fad4b;}.cls-2{fill:#626b7c;}</style></defs><g id="Layer_2" data-name="Layer 2"><g id="Layer_2-2" data-name="Layer 2"><g id="Layer_1_copy" data-name="Layer 1 copy"><rect class="cls-1" x="16.45" y="15.68" width="2.57" height="9.09"/><polygon class="cls-1" points="10.22 10.34 16.46 15.94 17.74 15.94 19.01 15.94 25.25 10.34 10.22 10.34"/><polygon class="cls-1" points="12.36 26.43 16.82 24.25 17.74 24.25 18.65 24.25 23.12 26.43 12.36 26.43"/></g><path class="cls-2" d="M17.74,0A17.74,17.74,0,1,0,35.47,17.74,17.74,17.74,0,0,0,17.74,0ZM29.43,20.85a2.8,2.8,0,0,0-1.74,3.77,2.81,2.81,0,0,1-3.88,3.59,2.8,2.8,0,0,0-3.91,1.43,2.8,2.8,0,0,1-5.27-.21,2.81,2.81,0,0,0-3.78-1.74h0a2.8,2.8,0,0,1-3.58-3.88A2.81,2.81,0,0,0,5.83,19.9,2.8,2.8,0,0,1,6,14.63a2.81,2.81,0,0,0,1.75-3.78,2.8,2.8,0,0,1,3.88-3.58,2.8,2.8,0,0,0,3.9-1.44A2.8,2.8,0,0,1,20.85,6a2.8,2.8,0,0,0,3.77,1.75h0a2.81,2.81,0,0,1,3.59,3.88h0a2.79,2.79,0,0,0,1.43,3.9A2.8,2.8,0,0,1,29.43,20.85Z"/></g></g></svg>